<mxfile host="Electron" modified="2024-06-13T14:49:08.029Z" agent="Mozilla/5.0 (Windows NT 10.0; Win64; x64) AppleWebKit/537.36 (KHTML, like Gecko) draw.io/22.1.21 Chrome/120.0.6099.109 Electron/28.1.0 Safari/537.36" etag="gx__PHEYvE9UQah3Fvr0" version="22.1.21" type="device">
  <diagram name="Page-1" id="m2mNTlEavmIgfHQxF0x3">
    <mxGraphModel dx="2074" dy="1196" grid="1" gridSize="10" guides="1" tooltips="1" connect="1" arrows="1" fold="1" page="1" pageScale="1" pageWidth="1920" pageHeight="1200" background="#ffffff" math="0" shadow="0">
      <root>
        <mxCell id="0" />
        <mxCell id="1" parent="0" />
        <mxCell id="taF97Ugbqb_CX8vDYoF7-1" value="&lt;span style=&quot;background-color: rgb(255, 255, 255);&quot;&gt;1er semestre 2024&lt;/span&gt;" style="swimlane;whiteSpace=wrap;html=1;strokeColor=#000000;fontColor=#000000;fillColor=none;" vertex="1" parent="1">
          <mxGeometry x="200" y="70" width="260" height="690" as="geometry">
            <mxRectangle x="200" y="70" width="140" height="30" as="alternateBounds" />
          </mxGeometry>
        </mxCell>
        <mxCell id="taF97Ugbqb_CX8vDYoF7-2" value="&lt;font&gt;ALPHA (Version 0)&lt;/font&gt;" style="shape=step;perimeter=stepPerimeter;whiteSpace=wrap;html=1;fixedSize=1;fillColor=#ffcc99;strokeColor=#000000;fontColor=#000000;" vertex="1" parent="taF97Ugbqb_CX8vDYoF7-1">
          <mxGeometry y="50" width="260" height="80" as="geometry" />
        </mxCell>
        <mxCell id="taF97Ugbqb_CX8vDYoF7-3" value="&lt;h1 style=&quot;text-align: center;&quot;&gt;ALPHA&lt;/h1&gt;&lt;p&gt;Mise en place d&#39;une &lt;u&gt;preuve de concept&lt;/u&gt; (POC) du noeud technique afin de définir l&#39;architecture :&lt;/p&gt;&lt;p&gt;&lt;b&gt;&lt;u&gt;Prévisionnel :&lt;/u&gt;&lt;/b&gt;&lt;/p&gt;&lt;p&gt;&lt;/p&gt;&lt;ul&gt;&lt;li&gt;POC validation technique (conformité csv, types et formats des données)&lt;/li&gt;&lt;li&gt;POC intégration en base de donnée géo2france&lt;/li&gt;&lt;li&gt;POC traçabilité (suivi et demande d&#39;export)&lt;/li&gt;&lt;li&gt;POC mapping inter-standard à l&#39;import (prise en charge des anciens formats&lt;/li&gt;&lt;li&gt;Intégration des nouvelles nomenclatures&lt;/li&gt;&lt;/ul&gt;&lt;div&gt;&lt;br&gt;&lt;/div&gt;&lt;div&gt;&lt;u&gt;Objectifs :&lt;/u&gt;&lt;/div&gt;&lt;p&gt;&lt;/p&gt;&lt;ul&gt;&lt;li&gt;Mettre en avant les évolutions techniques à prévoir pour les pôles&lt;/li&gt;&lt;li&gt;Découper et prioriser la suite des développements&lt;/li&gt;&lt;li&gt;Avoir un environnement de developpement avec les données issues de l&#39;INPN afin d&#39;initier le travail côté géo2france (Métadonnées, Geoserver)&lt;/li&gt;&lt;/ul&gt;&lt;div&gt;&lt;br&gt;&lt;/div&gt;&lt;p&gt;&lt;/p&gt;" style="text;html=1;strokeColor=#000000;fillColor=none;spacing=5;spacingTop=-20;whiteSpace=wrap;overflow=hidden;rounded=0;fontColor=#000000;" vertex="1" parent="taF97Ugbqb_CX8vDYoF7-1">
          <mxGeometry x="10" y="160" width="240" height="520" as="geometry" />
        </mxCell>
        <mxCell id="taF97Ugbqb_CX8vDYoF7-4" value="2e Semestre 2024" style="swimlane;whiteSpace=wrap;html=1;strokeColor=#000000;fontColor=#000000;fillColor=none;" vertex="1" parent="1">
          <mxGeometry x="460" y="70" width="260" height="690" as="geometry" />
        </mxCell>
        <mxCell id="taF97Ugbqb_CX8vDYoF7-5" value="BETA&amp;nbsp;(Version 0 &amp;gt; Version 1.0 MVP)" style="shape=step;perimeter=stepPerimeter;whiteSpace=wrap;html=1;fixedSize=1;fillColor=#647687;fontColor=#000000;strokeColor=#000000;" vertex="1" parent="taF97Ugbqb_CX8vDYoF7-4">
          <mxGeometry y="50" width="260" height="80" as="geometry" />
        </mxCell>
        <mxCell id="taF97Ugbqb_CX8vDYoF7-6" value="&lt;h1 style=&quot;text-align: center;&quot;&gt;ALPHA &amp;gt; BETA&lt;/h1&gt;&lt;p&gt;Mise en oeuvre et consolidation de l&#39;architecture en ciblant le Produit Minimum Viable (MVP)&lt;/p&gt;&lt;p&gt;&lt;b&gt;&lt;u&gt;Prévisionnel :&lt;/u&gt;&lt;/b&gt;&lt;br&gt;&lt;/p&gt;&lt;p&gt;&lt;/p&gt;&lt;ul&gt;&lt;li&gt;Inter-opérabilité avec les outils géo2france (métadonnée et flux wms)&lt;/li&gt;&lt;li&gt;Implémentation de toutes les RG métiers et des RG liées aux évolutions des standards&lt;/li&gt;&lt;li&gt;Finalisation et consolidation des 4 POC précédentes&lt;/li&gt;&lt;li&gt;POC Prise en charge des &quot;update&quot; (mise à jour de donnée et concept ModificationAttribut)&lt;/li&gt;&lt;li&gt;&lt;span style=&quot;background-color: initial;&quot;&gt;Intégration complète des référentiels de localisation et organismes&lt;/span&gt;&lt;br&gt;&lt;/li&gt;&lt;li&gt;Découpage et optimisation des process d&#39;import&lt;/li&gt;&lt;/ul&gt;&lt;div&gt;&lt;div&gt;&lt;u&gt;Objectifs :&lt;/u&gt;&lt;/div&gt;&lt;p&gt;&lt;/p&gt;&lt;ul&gt;&lt;li&gt;Fiabilisation et consolidation des flux de données en import&lt;/li&gt;&lt;li&gt;Intégrer les données issues des pôles (insert ou mise à jour)&lt;/li&gt;&lt;li&gt;Pouvoir générer des rapports d&#39;importation&lt;/li&gt;&lt;li&gt;Préparer le noeud technique à un nouvel import de masse&lt;/li&gt;&lt;/ul&gt;&lt;/div&gt;&lt;div&gt;&lt;/div&gt;&lt;p&gt;&lt;/p&gt;" style="text;html=1;strokeColor=#000000;fillColor=none;spacing=5;spacingTop=-20;whiteSpace=wrap;overflow=hidden;rounded=0;fontColor=#000000;" vertex="1" parent="taF97Ugbqb_CX8vDYoF7-4">
          <mxGeometry x="10" y="160" width="240" height="520" as="geometry" />
        </mxCell>
        <mxCell id="taF97Ugbqb_CX8vDYoF7-7" value="1er Semestre 2025" style="swimlane;whiteSpace=wrap;html=1;strokeColor=#000000;fontColor=#000000;fillColor=none;" vertex="1" parent="1">
          <mxGeometry x="720" y="70" width="260" height="690" as="geometry" />
        </mxCell>
        <mxCell id="taF97Ugbqb_CX8vDYoF7-8" value="PREPROD - V1.0 MVP" style="shape=step;perimeter=stepPerimeter;whiteSpace=wrap;html=1;fixedSize=1;fillColor=#6d8764;fontColor=#000000;strokeColor=#000000;" vertex="1" parent="taF97Ugbqb_CX8vDYoF7-7">
          <mxGeometry y="50" width="260" height="80" as="geometry" />
        </mxCell>
        <mxCell id="taF97Ugbqb_CX8vDYoF7-9" value="&lt;h1 style=&quot;text-align: center;&quot;&gt;BETA &amp;gt; V1.0 MVP&lt;/h1&gt;&lt;p&gt;Consolidation de la version BETA et préparation à la mise en ligne, à la communication et la diffusion&lt;/p&gt;&lt;p&gt;&lt;b&gt;&lt;u&gt;Prévisionnel :&lt;/u&gt;&lt;/b&gt;&lt;/p&gt;&lt;ul&gt;&lt;li&gt;POC Développement des besoins pour la validation scientifique (interfaçes, flux wms, accès aux téléchargements)&lt;/li&gt;&lt;li&gt;Intégration des référentiels manquants (Taxref et CAMPanule)&lt;/li&gt;&lt;li&gt;Application du floutage données sensibles&lt;/li&gt;&lt;li&gt;Fiablisation et optimisation des scripts d&#39;import&lt;/li&gt;&lt;li&gt;POC Développement d&#39;une cartographie grand public&lt;/li&gt;&lt;/ul&gt;&lt;div&gt;&lt;u&gt;Objectifs :&lt;/u&gt;&lt;/div&gt;&lt;p&gt;&lt;/p&gt;&lt;ul&gt;&lt;li&gt;Interopérabilité complète avec les outils géo2france&lt;/li&gt;&lt;li&gt;Une première version de cartographie grand public&lt;/li&gt;&lt;li&gt;Un outil de suivi interne (traçabilité)&lt;/li&gt;&lt;li&gt;Pouvoir réaliser un import de masse des données pôles et INPN&lt;/li&gt;&lt;/ul&gt;&lt;div&gt;&lt;br&gt;&lt;/div&gt;&lt;p&gt;&lt;/p&gt;" style="text;html=1;strokeColor=#000000;fillColor=none;spacing=5;spacingTop=-20;whiteSpace=wrap;overflow=hidden;rounded=0;fontColor=#000000;" vertex="1" parent="taF97Ugbqb_CX8vDYoF7-7">
          <mxGeometry x="10" y="160" width="240" height="520" as="geometry" />
        </mxCell>
        <mxCell id="taF97Ugbqb_CX8vDYoF7-10" value="2e Semestre 2025" style="swimlane;whiteSpace=wrap;html=1;strokeColor=#000000;fontColor=#000000;fillColor=none;" vertex="1" parent="1">
          <mxGeometry x="980" y="70" width="260" height="690" as="geometry" />
        </mxCell>
        <mxCell id="taF97Ugbqb_CX8vDYoF7-11" value="PROD - V1.0 MVP Testée et validée" style="shape=step;perimeter=stepPerimeter;whiteSpace=wrap;html=1;fixedSize=1;fillColor=#008a00;strokeColor=#000000;fontColor=#000000;" vertex="1" parent="taF97Ugbqb_CX8vDYoF7-10">
          <mxGeometry y="50" width="260" height="80" as="geometry" />
        </mxCell>
        <mxCell id="taF97Ugbqb_CX8vDYoF7-12" value="&lt;h1 style=&quot;text-align: center;&quot;&gt;V1.0 MVP&lt;/h1&gt;&lt;p&gt;Tests techniques, consolidation et documentation.&lt;br&gt;&lt;br&gt;&lt;/p&gt;&lt;p&gt;&lt;u&gt;&lt;b&gt;Prévisionnel :&lt;/b&gt;&lt;/u&gt;&lt;/p&gt;&lt;ul&gt;&lt;li&gt;Import complet de données fraîches depuis le national et les pôles&lt;/li&gt;&lt;li&gt;Tests techniques sur PREPROD avec les données rafraîchies&lt;/li&gt;&lt;li&gt;Tests fonctionnels avec ouverture ciblées aux &quot; bêta testeurs &quot;&lt;/li&gt;&lt;li&gt;Finalisation des tâches MVP non finalisées (process de validation, cartographies)&lt;/li&gt;&lt;li&gt;Correction des bugs éventuels&lt;/li&gt;&lt;/ul&gt;&lt;div&gt;&lt;br&gt;&lt;/div&gt;&lt;div&gt;&lt;u&gt;Objectifs :&lt;/u&gt;&lt;/div&gt;&lt;p&gt;&lt;/p&gt;&lt;ul&gt;&lt;li&gt;Valider la V1.0 pour mise en ligne&lt;/li&gt;&lt;li&gt;Mise en ligne du MVP&lt;/li&gt;&lt;/ul&gt;&lt;p&gt;&lt;/p&gt;" style="text;html=1;strokeColor=#000000;fillColor=none;spacing=5;spacingTop=-20;whiteSpace=wrap;overflow=hidden;rounded=0;fontColor=#000000;" vertex="1" parent="taF97Ugbqb_CX8vDYoF7-10">
          <mxGeometry x="10" y="160" width="240" height="520" as="geometry" />
        </mxCell>
        <mxCell id="taF97Ugbqb_CX8vDYoF7-13" value="2026..." style="swimlane;whiteSpace=wrap;html=1;strokeColor=#000000;fontColor=#000000;fillColor=none;" vertex="1" parent="1">
          <mxGeometry x="1240" y="70" width="260" height="690" as="geometry" />
        </mxCell>
        <mxCell id="taF97Ugbqb_CX8vDYoF7-14" value="V1.0 à V2.0 MVP" style="shape=step;perimeter=stepPerimeter;whiteSpace=wrap;html=1;fixedSize=1;strokeColor=#006EAF;fontColor=#ffffff;fillColor=#1ba1e2;" vertex="1" parent="taF97Ugbqb_CX8vDYoF7-13">
          <mxGeometry y="50" width="260" height="80" as="geometry" />
        </mxCell>
        <mxCell id="taF97Ugbqb_CX8vDYoF7-15" value="&lt;h1 style=&quot;text-align: center;&quot;&gt;V2.0 MVP&lt;/h1&gt;&lt;p&gt;Feuille de route vers V2.0 à définir mais on peut déjà noter :&lt;br&gt;&lt;br&gt;&lt;br&gt;&lt;b&gt;&lt;u&gt;Prévisionnel :&lt;/u&gt;&lt;/b&gt;&lt;/p&gt;&lt;p&gt;&lt;/p&gt;&lt;ul&gt;&lt;li&gt;Gestion des preuves (stockage des photos etc.)&lt;/li&gt;&lt;li&gt;Prise en charge du standard habitat&lt;/li&gt;&lt;li&gt;Cartographie spécifique&lt;/li&gt;&lt;li&gt;Evolutions diverses etc.&lt;/li&gt;&lt;/ul&gt;&lt;p&gt;&lt;/p&gt;&lt;p&gt;&lt;/p&gt;" style="text;html=1;strokeColor=#000000;fillColor=none;spacing=5;spacingTop=-20;whiteSpace=wrap;overflow=hidden;rounded=0;fontColor=#000000;" vertex="1" parent="taF97Ugbqb_CX8vDYoF7-13">
          <mxGeometry x="10" y="162" width="240" height="518" as="geometry" />
        </mxCell>
      </root>
    </mxGraphModel>
  </diagram>
</mxfile>
